<?xml version="1.0" encoding="UTF-8"?><svg id="Layer_1" xmlns="http://www.w3.org/2000/svg" viewBox="0 0 2361.487 870.709"><defs><style>.cls-1{fill:none;fill-rule:evenodd;stroke:currentColor;stroke-linecap:round;stroke-miterlimit:2.613;stroke-width:9px;}</style></defs><path class="cls-1" d="M447.122,742.7c50.019,16.969,100.038,33.938,161.145,43.021,61.106,9.083,133.299,10.279,180.164-14.45,46.865-24.729,68.404-75.384,67.606-149.571-.798-74.187-23.931-171.906,2.991-231.535,26.923-59.629,103.902-81.167,156.312-76.62,52.41,4.547,80.25,35.179,93.293,65.133,13.042,29.954,11.287,59.23,12.883,87.19,1.596,27.96,6.541,54.603,19.464,70.079,12.923,15.475,33.823,19.783,49.518,16.987,15.695-2.796,26.185-12.695,36.675-22.595-6.793,31.21-31.254,49.499-57.219,49.273-33.514-.292-60.448-27.699-60.156-61.213.292-33.516,27.699-60.449,61.213-60.157,29.632.258,54.121,21.712,59.195,49.844.186,1.032.346,2.072.479,3.12,34.949.304,70.042.377,104.991.682,5.44-13.825,23.591-23.877,45.054-23.691,1.647.015,3.275.091,4.878.221-2.317-16.561-6.492-32.534-12.311-47.697-1.345.897-2.737,1.757-4.179,2.572-22.321,12.626-47.593,10.179-56.448-5.471-8.853-15.651,2.065-38.571,24.383-51.202,1.422-.805,2.858-1.547,4.298-2.23-10.148-12.955-21.726-24.742-34.504-35.112-.707,1.429-1.475,2.851-2.305,4.26-13.017,22.095-36.127,32.611-51.619,23.485-15.493-9.125-17.499-34.435-4.485-56.533.839-1.425,1.722-2.802,2.641-4.129-15.057-6.082-30.954-10.535-47.471-13.138.102,1.602.15,3.227.135,4.872-.226,25.644-14.981,46.306-32.961,46.149-17.98-.156-32.373-21.073-32.152-46.717.014-1.645.09-3.269.22-4.869-16.562,2.314-32.532,6.489-47.693,12.307.895,1.343,1.755,2.736,2.569,4.176,12.626,22.321,10.18,47.593-5.471,56.449-15.65,8.853-38.571-2.065-51.201-24.384-.805-1.422-1.547-2.856-2.23-4.298-12.956,10.148-24.74,21.726-35.108,34.504,1.429.706,2.849,1.475,4.257,2.305,22.095,13.017,32.612,36.125,23.485,51.619-9.125,15.493-34.436,17.498-56.533,4.485-1.423-.838-2.798-1.72-4.122-2.636-6.082,15.056-10.538,30.95-13.139,47.466,1.6-.103,3.225-.149,4.868-.135,25.643.225,46.305,14.981,46.149,32.962-.158,17.979-21.073,32.372-46.716,32.151-1.647-.015-3.275-.091-4.878-.222,2.317,16.562,6.492,32.535,12.311,47.698,1.345-.897,2.737-1.757,4.179-2.572,22.321-12.626,47.592-10.179,56.449,5.471,8.853,15.651-2.065,38.572-24.384,51.202-1.422.805-2.858,1.547-4.299,2.23,10.148,12.955,21.726,24.74,34.504,35.112.708-1.43,1.475-2.852,2.305-4.26,13.017-22.096,36.125-32.611,51.62-23.486,15.493,9.126,17.499,34.437,4.485,56.533-.839,1.426-1.723,2.803-2.641,4.129,15.057,6.083,30.954,10.536,47.472,13.139-.103-1.602-.15-3.229-.135-4.873.225-25.643,14.98-46.305,32.962-46.149,17.979.158,32.372,21.072,32.15,46.716-.014,1.647-.091,3.275-.222,4.877,16.562-2.317,32.535-6.492,47.698-12.311-.897-1.344-1.757-2.737-2.572-4.18-12.626-22.32-10.18-47.591,5.471-56.447,15.651-8.853,38.572,2.064,51.202,24.384.805,1.422,1.547,2.858,2.23,4.299,12.955-10.148,24.74-21.726,35.112-34.504-1.43-.707-2.851-1.475-4.26-2.305-22.096-13.017-32.612-36.125-23.486-51.619,9.125-15.493,34.436-17.498,56.533-4.485,1.426.839,2.802,1.722,4.13,2.641,6.082-15.057,10.535-30.954,13.137-47.471-1.602.102-.028.173-4.873.135-13.642-.121-43.433-7.19-43.279-25.171,47.628-14.415,95.255-28.83,136.818-21.28,41.563,7.55,77.061,37.065,95.608,77.749,18.547,40.683,20.142,92.534,42.793,124.864,22.651,32.329,66.358,45.137,110.065,57.945-28.718,2.393-57.435,4.786-71.621,6.176-14.186,1.39-13.841,1.777-13.845-10.622-.005-12.399-.359-37.583,5.651-63.702,6.009-26.119,18.383-53.173,26.963-70.489,8.58-17.316,13.366-24.895,15.759-25.293,2.393-.399,2.393,6.382,11.766,37.493,9.373,31.11,28.119,86.552,37.493,113.674,9.373,27.122,9.373,25.926,36.495,25.327,27.122-.598,81.366-.598,109.087.399,27.72.997,28.917,2.991,32.507-7.379,3.59-10.37,9.573-33.105,15.755-68.204,6.182-35.099,12.564-82.563,15.755-106.295q3.191-23.732,12.564-9.573c9.373,14.159,28.119,42.478,39.79,74.159,11.671,31.681,16.267,66.724,18.605,84.923,2.338,18.2,2.418,19.556-16.034,18.986-18.452-.57-55.435-3.066-75.123-3.517-19.688-.45-22.081,1.145-20.286-11.02,1.795-12.165,7.778-38.09,14.957-79.572,7.179-41.481,15.555-98.517,17.55-162.533,1.994-64.016-2.393-135.013-16.951-188.659-14.558-53.646-39.287-89.942-66.21-107.691-26.923-17.749-56.039-16.952-76.78,2.393-20.741,19.344-33.105,57.236-30.513,94.728,2.592,37.492,20.142,74.586,51.452,88.745,31.31,14.159,76.381,5.384,103.104-15.356,26.723-20.74,35.099-53.447,32.546-92.48-2.553-39.033-16.035-84.393-22.673-107.01-6.638-22.617-6.432-22.49-21.196-19.584-14.764,2.906-44.499,8.593-70.766,7.079-26.268-1.514-49.069-10.228-49.149-13.428-.08-3.2,22.561-.886,41.961-.288,19.401.597,35.561-.523,49.581-2.682,14.02-2.159,25.899-5.358,31.425-6.956,5.526-1.599,4.699-1.598-7.08-26.122-11.779-24.525-34.51-73.575-46.674-99.098-12.163-25.523-13.759-27.517-28.649-5.613-14.891,21.904-43.076,67.706-67.008,159.642-23.931,91.936-43.608,230.007-40.284,334.939,3.324,104.932,29.648,176.726,45.403,219.404,15.755,42.677,20.94,56.238,24.649,65.931,3.709,9.692,5.943,15.515,7.06,18.108,1.117,2.593,1.117,1.954,16.034,1.954s44.752.638,61.185.957c16.433.319,19.464.319,21.059-.239,14.025-4.907,11.832-33.695-.319-18.507-4.148,5.185-8.137,14.758-9.253,22.735-1.117,7.977.638,14.359,2.393,20.741,93.579-32.751,187.159-65.501,285.002-46.777,66.178,12.664,134.306,48.877,202.943,70.249M447.122,742.7c-2.431,2.967-4.862,5.934-8.713,8.32-3.851,2.386-9.124,4.192-15.608,3.473-6.484-.719-14.181-3.963-18.288-10.61-4.107-6.646-4.624-16.696-3.691-21.838.932-5.143,3.314-5.379,14.995-1.569,11.681,3.81,32.662,11.668,46.416,14.551,13.754,2.883,20.28.793,23.887-3.253,3.606-4.046,4.293-10.046-3.823-15.894-8.116-5.848-25.035-11.543-40.612-17.452-15.577-5.909-29.813-12.031-36.681-19.045-6.869-7.014-6.371-14.919-4.502-20.315,1.869-5.396,5.109-8.283,20.323-3.621,15.212,4.662,42.398,16.874,59.14,24.831,16.742,7.958,23.042,11.661,29.458,8.459s12.947-13.31.922-23.819c-12.026-10.51-42.609-21.423-61.558-30.604-18.948-9.181-26.261-16.632-28.737-22.599-2.476-5.967-.116-10.45,20.116-4.082,20.232,6.369,58.336,23.589,77.467,32.191,19.131,8.602,19.29,8.586,19.553,7.197.263-1.389.63-4.151,13.392-12.873,12.762-8.722,37.919-23.404,69.025-44.77,31.106-21.365,68.163-49.413,84.45-92.074,16.287-42.661,11.803-99.933-10.13-141.252-21.933-41.319-61.316-66.686-105.643-73.107-44.326-6.422-93.595,6.101-125.658,31.217-32.062,25.115-46.916,62.824-50.861,107.065-3.945,44.241,3.019,95.014,6.548,121.679,3.529,26.665,3.622,29.22,13.607,35.724,9.984,6.504,29.86,16.956,49.252,21.324,19.392,4.368,38.3,2.651,53.572-19.547,15.272-22.198,26.907-64.878,39.41-89.126,12.503-24.248,25.874-30.064,34.469-28.272,8.595,1.792,12.414,11.193,2.424,17.956s-33.79,10.89-55.098,5.39c-21.309-5.5-40.125-20.627-45.847-33.847-5.721-13.22,1.653-24.534,9.822-26.226,8.169-1.693,17.133,6.235,15.873,25.038-1.26,18.803-12.743,48.481-22.086,71.454-9.343,22.973-16.546,39.239-23.749,55.506-48.291-40.383-96.582-80.765-161.905-90.792s-147.677,10.302-201.096,53.578c-53.418,43.276-77.901,109.498-123.719,157.806"/></svg>