<?xml version="1.0" encoding="UTF-8"?><svg id="Calque_1" xmlns="http://www.w3.org/2000/svg" viewBox="0 0 245.468 234.084"><path fill="currentColor" stroke="none" d="M242.38,131.765c.828-5.262,3.937-7.092-2.988-10.656-.379-1.285,1.163-2.94,1.407-4.426,1.012-6.183-3.873-7.409-3.729-10.389.21-4.327,10.162-8.109,8.122-14.908-1.37-4.564-24.501-12.702-26.039-24.228-.413-3.093.272-6.116-.398-9.352-1.409-6.806-11.539-19.639-16.621-24.629-4.162-4.088-11.187-7.641-14.484-11.015-.709-.725-1.395-1.59-1.541-2.608-.246-.263-.449-.557-.627-.867-.821-.329-1.469-.863-1.941-1.521-1.467-.46-7.704-5.878-9.977-7.168-21.957-12.459-52.797-7.837-74.982,1.972-4.684,2.071-8.993,4.98-13.739,6.88-2.667-25.413-28.608-20.958-44.946-10.815C15.934,22.91,5.727,50.932,15.607,77.744c-27.076,20.114-13.172,58.153-1.164,83.124,2.964,6.164,18.426,34.668,23.15,36.871.818.381,1.461.655,2.267.024,2.589-1.619,1.177-14.5,1.489-18.028.913-10.292,5.594-13.47,9.133-21.617,5.336-12.285.382-11.433-6.904-18.136-3.005-2.764-7.174-6.697-9.719-9.781-12.962-15.71,6.02-8.639,15.262-9.45,15.268-1.341,6.449-12.545,3.832-20.894-9.602-30.636,2.776-58.711,28.876-75.758-1.146,17.143-12.2,31.229-19.495,46.157l.73,1.482c29.482,10.423,15.96,55.28-3.399,69.367,3.643,18.484,30.171,33.43,47.999,28.448,17.324-4.841,6.387-27.277,7.972-38.531.459-3.263,2.606-5.765,6.175-4.959.451.102,4.448,6.226,5.478,7.458,1.159,1.386,2.976,1.538,3.849,3.651,1.911,4.622.815,14.352,1.69,19.677-2.945-1.804-4.785-19.395-9.751-12.38-3.038,4.291-4.317,21.315-6.528,27.969-8.771,26.384-38.118,35.306-47.344,56.151-.748,1.69-1.999,5.437.953,5.495,3.13.061,15.65-7.784,19.659-9.628,20.836-9.585,35.208-11.448,56.787-2.249,3.578,1.525,18.03,10.253,20.226,9.565,1.18-.369,1.463-1.738,1.795-2.757,2.082-6.384,2.254-15.385,4.336-22.664,3.639-12.72,10.869-27.395,19.854-37.146,2.521-2.737,9.226-7.453,10.565-9.696.42-.705.991-1.175.629-2.139-.518-1.252-1.323-1.684-2.593-1.975-6.266-1.435-13.177-.424-19.857-1.893-9.393-2.066-14.651-6.443-18.617-15.133-1.644-3.602-5.561-20.047-6.813-20.941-2.843-2.031-4.293,4.626-6.03,3.418-2.62-6.966-16.232-16.586-21.649-7.756-7.314,11.921,14.089,23.399,22.01,13.775,3.305,3.342-.455,9.784-4.084,10.902-3.047.938-8.845.473-11.563-1.269-3.165-2.029-3.221-8.041-8.006-11.494-1.495-1.079-3.135-.701-4.333-2.417-3.219-4.608-4.219-18.022,2.302-20.667,10.164-4.123,20.776,12.445,32.275,9.768,9.396-2.187-1.95-18.888-1.672-24.105.485-9.106,10.88-12.385,9.721-22.626-.573-5.061-6.988-10.523-9.033-15.714-7.243-18.389,11.455-26.744,26.304-29.33,1.911.643,2.327,2.588,3.764,3.761,2.801,2.287,6.349,3.887,8.97,6.031,6.089,4.98,18.939,19.557,21.019,26.981,1.311,4.68.071,8.898,1.5,13.5,1.459,4.696,8.08,9.799,12.026,12.724,2.709,2.008,13.101,7.322,13.459,9.852.741,5.224-8.247,8.564-8.331,13.448-.078,4.579,5.525,3.969,3.299,11.513-.584,1.978-2.455,3.28-2.493,5.373,2.154-.254,5.795.917,6.029,3.41.151,1.606-1.243,2.924-1.485,4.507-1.08,7.073,4.884,13.85,2.391,19.649-3.351,7.794-38.595,4.414-45.886,4.027l6.903,2.774c10.316.209,29.315,3.434,38.299-2.987,8.429-6.023-.697-14.839.542-22.711ZM129.424,120.112c-.827-3.212.373-7.353,3.962-8.117,4.2-.894,8.496,2.005,11.373,4.807,14.739,14.354-12.354,14.887-15.335,3.309ZM151.926,135.813c4.315-6.658-1.234-10.243,1.727-14.753.473-.72-.071-1.341,1.673-.959,3.084,12.243,5.367,26.623,17.849,32.785,9.23,4.557,18.786,3.449,28.662,4.721-3.579,4.319-8.282,7.379-11.977,11.64-14.102,16.259-21.337,39.15-23.277,60.356-.823.796-14.393-7.321-16.738-8.386-21.015-9.546-35.863-9.571-57.026-.511-5.915,2.532-13.274,7.857-18.683,9.816-1.193.432-2.25.765-3.545.573-.543-.48,2.58-4.69,3.134-5.484,14.987-21.469,38.199-27.991,45.808-56.192.953-3.532,3.99-22.774,5.065-23.818,1.089-1.059,1.295.274,1.666.954,1.227,2.244,4.119,14.031,5.197,14.661l2.838.099c1.413-7.374-.01-15.034-.708-22.462,6.436,1.681,14.078,3.529,18.335-3.04ZM50.551,99.261c1.068,3.748,6.398,14.27,4.675,17.104-2.657,4.371-18.916.698-23.97,1.528-12.81,2.105,7.194,20.186,10.82,23.592,5.802,5.451,10.506,4.522,6.892,14.37-3.092,8.424-9.881,14.144-9.881,24.619v14.625c-1.043.053-1.433.225-2.282-.509-1.904-1.646-7.121-10.709-8.824-13.51-16.434-27.032-42.997-78.759-9.979-102.75-1.406-4.664-3.032-9.232-3.654-14.117C10.54,34.311,37.055-1.267,68.714,2.347c8.928,1.019,15.698,10.593,13.116,19.124-27.31,17.583-40.444,45.627-31.279,77.79ZM154.222,50.339c2.223,5.277,9.321,11.569,9.244,16.9-.079,5.431-8.611,10.772-9.562,17.3-1.452,9.968,5.917,14.861,4.087,24.337-3.839,5.748-21.828-8.988-27.85-9.717-14.175-1.717-13.731,14.908-9.993,24.209-.157.765-3.818,1.448-4.914,2.754-7.25,8.633,11.155,39.89-11.242,42.007-16.687,1.578-36.556-9.3-41.567-25.76,18.957-16.864,31.813-59.994,2.185-72.887,7.393-11.705,14.219-23.949,18.174-37.311,1.052-3.556.973-7.04,2.444-10.306C106.767,7.64,136.589.164,161.906,7.405c6.544,1.871,13.96,5.244,18.18,10.686-15.911,3.086-33.82,13.368-25.864,32.248Z"/></svg>